<svg xmlns="http://www.w3.org/2000/svg" width="178.315" height="177.585" viewBox="0 0 178.315 177.585">
  <g id="layer1" transform="translate(-137.89 -361.625)">
    <g id="g3682">
      <path id="path2816" d="M200.01,364.45V539.21" fill="none" stroke="#fff" stroke-width="2"/>
      <path id="path2816-1" d="M249.51,362.93V537.69" fill="none" stroke="#fff" stroke-width="2"/>
      <path id="path2816-1-7" d="M137.89,414.96H312.65" fill="none" stroke="#fff" stroke-width="2"/>
      <path id="path2816-1-7-4" d="M138.9,469.5H313.66" fill="none" stroke="#fff" stroke-width="2"/>
      <path id="path3662" d="M266.05,362.85c17.317,13.619,31.373,30.861,48.62,44.548-5.67,5.247-10.334-5.754-15.167-8.232-11.955-11.7-23.414-24.064-36.8-34.17Z" fill="#fff" stroke="#fff" stroke-width="2"/>
      <path id="path3664" d="M305.31,367.12c-9.213,6.087-16.95,14.285-24.043,22.682-4.3,4-3.932,12.117-10.264,13.645A60.743,60.743,0,0,1,287.4,380.772c5.346-5.179,10.588-11.359,17.913-13.652Z" fill="#fff" stroke="#fff" stroke-width="2"/>
      <path id="path3666" d="M172.42,372.69c-2.674-.5-11.991,2.165-10.445,1.917,2.491-1.969-6.223,6.582-4.536,10.505-1.183,10.746,10.21,16.955,19.349,18.04,2.32.209,8.593-2.755,3.25-.156,5.74-7.253,4.226-19.119-1.88-25.894-3.84-2.374-11.256-7.7-3.258-6.888a21.592,21.592,0,0,1,11.639,24.365c-.3,10.69-15.1,13.553-22.468,7.754-9.568-3.154-13.041-15.4-7.694-23.579,3.387-6.03,15.2-9.152,18.453-7.815l-2.41,1.751Z" fill="#fff" stroke="#fff" stroke-width="2"/>
      <path id="path3668" d="M214.32,422.48c10.124,10.79,19.187,22.651,30.48,32.265,4.685,4.353-3.88,7.254-4.215,1.162-10.92-9.415-19.535-21.124-29.669-31.341l3.4-2.086Z" fill="#fff" stroke="#fff" stroke-width="2"/>
      <path id="path3670" d="M240.78,425.69c-8.027,7.555-17.969,13.122-24.691,21.964-.37,4.007-9.616,9.659-4.319,2.8,5.9-9.556,16.436-14.734,24.328-22.444,1.208-1.319,3.13-1.548,4.682-2.316Z" fill="#fff" stroke="#fff" stroke-width="2"/>
      <path id="path3674" d="M161.33,483.96a33.117,33.117,0,0,0-6.93,2.392c-3.168,1.871-3.146,1.642-1.706,1.267-8.835,5-13.9,21.166-4.883,27.966,5.15,5.108,20.556,4.59,20.6,3.424-2.751,1.744,5.134-5.615,3.993-9.078,2.337-9.692-6.492-17.444-13.334-22.61-9.384-.717,5.791-5.753,7.179.825,7.581,6.1,13.283,16.119,8.133,25.646-4.712,8.095-15.874,11.053-24.082,6.583-12.446-2.015-12.754-17.107-7.067-25.792,3.8-6.163,17.772-13.094,20.072-12.11l-1.977,1.487Z" fill="#fff" stroke="#fff" stroke-width="2"/>
      <path id="path3676" d="M156.82,423.18c14,8.027,24.126,20.941,35.5,32.067-5,5.145-8.148-4.539-12.174-7.038-7.89-8.6-16.21-17.311-26.646-22.8l3.319-2.223Z" fill="#fff" stroke="#fff" stroke-width="2"/>
      <path id="path3678" d="M189.24,422.86a277.5,277.5,0,0,1-26.069,28.517c-1.282,3.535-13.126,11.787-6.17,4.379,9.316-10.012,19.514-19.264,27.705-30.3.934-1.594,3.033-1.746,4.534-2.593Z" fill="#fff" stroke="#fff" stroke-width="2"/>
      <path id="path3680" d="M276.63,422.49c-2.98,1.738-4.475,2.417-3.461,1.948-1.747,1.122-8.254,4.488-3.036,1.736-10.123,6.324-6.9,19.308,3.27,23.417,6.533,2.838,14.6,3.441,20.913-.452-6.643,4.95,5.661-5.534,1.378-9.808-3.472-8.887-13.8-12.392-22.61-12.924-8.568-.74,6.026-4.291,9-1.415,8.558,1.389,19.664,8.5,17.132,18.584-3.179,8.305-14.185,11.986-22.422,10.1-8.893-.838-21.053-10.628-15.125-20.264,1.268-3.845,9.308-9.034,10.137-8.9-3.717,2.427,15.162-9.406,4.827-2.025Z" fill="#fff" stroke="#fff" stroke-width="2"/>
    </g>
  </g>
</svg>
